:version 1.10
:name ASF
:units
  mass 1
  length 1
  angle deg
:documentation
  ASF file generated by Kaydara
:root
  axis xyz
  order  tx ty tz rx ry rz
  position 0 0 0
  orientation 0 0 0
:bonedata
  begin
    id 1
    name abdomenDummy
    direction 1 -1.27917e-005 -1.26829e-007
    length 1.79048
    axis 0 0 0 xyz
  end
  begin
    id 2
    name abdomen
    direction 0.987238 0.159249 -9.68575e-008
    length 8.61378
    axis 2.73208e-005 5.54953e-006 9.16328 xyz
    dof rx ry rz
  end
  begin
    id 3
    name chest
    direction 0 0 0
    length 0
    axis 2.65071e-005 8.63688e-006 2.59796 xyz
    dof rx ry rz
  end
  begin
    id 4
    name neckDummyDummy
    direction 0.998972 0.0453274 -1.50742e-007
    length 9.56202
    axis 2.65071e-005 8.63688e-006 2.59796 xyz
  end
  begin
    id 5
    name neckDummy
    direction 0.99977 0.0214525 -1.61748e-007
    length 1.93574
    axis 2.62932e-005 9.26758e-006 1.22924 xyz
    dof rx ry rz
  end
  begin
    id 6
    name neck
    direction 0.99928 -0.0379406 -1.88707e-007
    length 3.70367
    axis 2.56966e-005 1.08122e-005 -2.17436 xyz
    dof rx ry rz
  end
  begin
    id 7
    name head
    direction 0.992648 -0.121037 -2.25408e-007
    length 6.35158
    axis 2.47068e-005 1.29149e-005 -6.95196 xyz
    dof rx ry rz
  end
  begin
    id 8
    name figureHair
    direction -0.86681 -0.498639 -7.83376e-008
    length 8.29884
    axis -2.7515e-005 4.48842e-006 -150.09 xyz
    dof rx ry rz
  end
  begin
    id 9
    name lCollarDummy
    direction 0.994611 0.0451299 -0.0933417
    length 9.60395
    axis 2.65071e-005 8.63688e-006 2.59796 xyz
  end
  begin
    id 10
    name lCollar
    direction 0.0384146 0.00127577 -0.999261
    length 6.95318
    axis 90.4899 87.7973 1.90202 xyz
    dof rx ry rz
  end
  begin
    id 11
    name lShldr
    direction -0.030648 0.0920515 -0.995282
    length 9.61158
    axis -161.793 84.4324 108.415 xyz
    dof rx ry rz
  end
  begin
    id 12
    name lForeArm
    direction 0.000163956 -0.0977586 -0.99521
    length 8.6068
    axis 0.134773 84.3899 -89.8525 xyz
    dof rx ry rz
  end
  begin
    id 13
    name lHand
    direction -0.0190533 -0.1444 -0.989336
    length 7.61479
    axis -7.3729 81.6249 -97.517 xyz
    dof rx ry rz
  end
  begin
    id 14
    name rCollarDummy
    direction 0.994871 0.0442627 0.0909555
    length 9.60761
    axis 2.65071e-005 8.63688e-006 2.59796 xyz
  end
  begin
    id 15
    name rCollar
    direction 0.0334251 -4.74072e-007 0.999441
    length 6.97058
    axis -178.152 -88.0845 -0.000674207 xyz
    dof rx ry rz
  end
  begin
    id 16
    name rShldr
    direction -0.026922 0.0719509 0.997045
    length 9.60913
    axis 71.2822 -85.594 110.514 xyz
    dof rx ry rz
  end
  begin
    id 17
    name rForeArm
    direction 0.00134679 -0.118986 0.992895
    length 8.57176
    axis -88.7923 -83.1659 -89.3516 xyz
    dof rx ry rz
  end
  begin
    id 18
    name rHand
    direction -0.0185183 -0.0768601 0.99687
    length 7.69687
    axis -74.5596 -85.4655 -103.546 xyz
    dof rx ry rz
  end
  begin
    id 19
    name lThighDummy
    direction -0.236086 -0.0385456 -0.970967
    length 4.99155
    axis 0 0 0 xyz
  end
  begin
    id 20
    name lThigh
    direction -0.993968 0.0148998 -0.108653
    length 13.572
    axis -91.4001 6.23768 179.141 xyz
    dof rx ry rz
  end
  begin
    id 21
    name lShin
    direction -0.992341 0.0904576 -0.0841193
    length 18.5862
    axis -91.4558 4.82538 174.792 xyz
    dof rx ry rz
  end
  begin
    id 22
    name lFoot
    direction 0.0209381 -0.999771 -0.00453005
    length 8.44474
    axis 4.86759 0.259522 -88.8001 xyz
    dof rx ry rz
  end
  begin
    id 23
    name rThighDummy
    direction -0.236086 -0.0385456 0.970967
    length 4.99155
    axis 0 0 0 xyz
  end
  begin
    id 24
    name rThigh
    direction -0.993968 0.0148995 0.108653
    length 13.5721
    axis -89.7059 -6.2377 179.141 xyz
    dof rx ry rz
  end
  begin
    id 25
    name rShin
    direction -0.9925 0.0899962 0.0827255
    length 18.6716
    axis -89.2745 -4.74775 174.819 xyz
    dof rx ry rz
  end
  begin
    id 26
    name rFoot
    direction 0.0301721 -0.999545 9.70865e-005
    length 8.45013
    axis -2.50066e-005 -0.00555246 -88.271 xyz
    dof rx ry rz
  end
:hierarchy
  begin
    root abdomenDummy lThighDummy rThighDummy
    abdomenDummy abdomen
    abdomen chest
    chest neckDummyDummy lCollarDummy rCollarDummy
    neckDummyDummy neckDummy
    neckDummy neck
    neck head
    head figureHair
    lCollarDummy lCollar
    lCollar lShldr
    lShldr lForeArm
    lForeArm lHand
    rCollarDummy rCollar
    rCollar rShldr
    rShldr rForeArm
    rForeArm rHand
    lThighDummy lThigh
    lThigh lShin
    lShin lFoot
    rThighDummy rThigh
    rThigh rShin
    rShin rFoot
  end

:SAMPLES-PER-SECOND 25
:FULLY-SPECIFIED
:DEGREES
126
root  -56.279 37.2113 24.719 -172.829 1.33831 84.4371
abdomen  0.678533 -4.007 -4.73958
chest  1.17227 0.916896 -11.5815
neckDummy  3.03321e-021 0 6.73878e-016
neck  -16.6659 12.8098 14.2079
head  -20.0518 -24.7965 -10.0024
figureHair  0 0 -1.04948e-014
lCollar  -3.38943e-016 -6.49156e-016 -7.51406e-014
lShldr  13.7772 -27.223 -77.2433
lForeArm  43.7817 -58.6071 2.04699
lHand  0.254698 0.195082 5.2986
rCollar  2.67893e-016 -5.20816e-014 1.63997e-015
rShldr  42.4436 35.2633 103.737
rForeArm  -19.7843 0.136827 73.5446
rHand  0.737727 -14.5712 -0.76711
lThigh  -2.16799 -8.16636 -4.57996
lShin  7.91277 3.98197 -1.19046
lFoot  5.87078 0.0203999 -13.0416
rThigh  5.99339 -6.05453 1.40126
rShin  -16.0322 19.8536 -3.51623
rFoot  -4.86383 0.941349 2.73871
127
root  -56.4332 37.2397 25.1696 -175.557 1.53607 85.353
abdomen  0.854943 -2.59287 -4.52085
chest  1.18645 0.234015 -11.3792
neckDummy  3.03321e-021 0 6.73878e-016
neck  -16.5586 12.7616 15.4687
head  -20.1079 -24.5223 -9.6699
figureHair  0 0 -1.04948e-014
lCollar  -3.38943e-016 -6.49156e-016 -7.51406e-014
lShldr  13.1942 -22.2246 -77.5864
lForeArm  42.6841 -54.4489 1.5533
lHand  0.254698 0.195082 5.2986
rCollar  2.67893e-016 -5.20816e-014 1.63997e-015
rShldr  37.4106 41.2191 99.8849
rForeArm  -21.8912 0.0236462 78.6571
rHand  0.505129 -15.3255 1.03725
lThigh  -2.59588 -7.31516 -4.80686
lShin  5.66518 2.35502 -2.32694
lFoot  6.62041 0.000895225 -12.7027
rThigh  5.93526 -6.48654 0.542571
rShin  -18.1651 18.5838 -4.24169
rFoot  -4.28937 0.907764 3.1515
128
root  -56.5099 37.2357 25.5876 -178.248 1.66308 86.1532
abdomen  0.908709 -1.54004 -4.75535
chest  1.13641 0.088549 -11.2215
neckDummy  3.03321e-021 0 6.73878e-016
neck  -16.2928 12.3173 17.3643
head  -19.862 -24.1048 -9.51311
figureHair  0 0 -1.04948e-014
lCollar  -3.38943e-016 -6.49156e-016 -7.51406e-014
lShldr  13.5787 -18.2986 -77.2733
lForeArm  40.0506 -45.8144 0.771358
lHand  0.254698 0.195082 5.2986
rCollar  2.67893e-016 -5.20816e-014 1.63997e-015
rShldr  31.4017 47.0856 93.9238
rForeArm  -24.4446 0.015345 79.034
rHand  0.453376 -13.7408 0.974684
lThigh  -3.07946 -7.08887 -4.88316
lShin  3.29891 1.6877 -3.29429
lFoot  6.94641 -0.0482033 -11.8806
rThigh  5.83579 -6.9779 -0.0661877
rShin  -19.3501 17.4009 -4.8374
rFoot  -3.61255 0.869732 3.69956
129
root  -56.5056 37.22 25.9758 179.24 1.76019 86.97
abdomen  0.930569 -0.471572 -5.20533
chest  1.02559 -0.361371 -10.8558
neckDummy  3.03321e-021 0 6.73878e-016
neck  -15.67 12.0377 19.3745
head  -19.3038 -23.1989 -9.58608
figureHair  0 0 -1.04948e-014
lCollar  -3.38943e-016 -6.49156e-016 -7.51406e-014
lShldr  16.6338 -16.151 -76.9047
lForeArm  35.0164 -32.4569 0.0320578
lHand  0.254698 0.195082 5.2986
rCollar  2.67893e-016 -5.20816e-014 1.63997e-015
rShldr  24.9468 52.4693 86.4192
rForeArm  -25.1805 0.137121 73.5333
rHand  0.530755 -11.6485 -0.214248
lThigh  -3.39387 -7.44085 -4.95458
lShin  1.02553 1.50501 -4.0596
lFoot  6.94824 -0.087853 -11.2006
rThigh  5.45588 -8.1222 -0.450254
rShin  -20.3398 16.8626 -5.53241
rFoot  -3.00352 0.811775 4.0272
130
root  -56.4488 37.2103 26.3295 176.923 1.73432 87.6064
abdomen  0.70391 0.157188 -5.99729
chest  0.767812 -0.087215 -10.3965
neckDummy  3.03321e-021 0 6.73878e-016
neck  -15.0627 11.0759 20.6571
head  -18.5115 -22.4498 -9.1464
figureHair  0 0 -1.04948e-014
lCollar  -3.38943e-016 -6.49156e-016 -7.51406e-014
lShldr  20.9995 -15.3006 -76.0371
lForeArm  28.3511 -16.1786 -1.67993
lHand  0.254698 0.195082 5.2986
rCollar  2.67893e-016 -5.20816e-014 1.63997e-015
rShldr  21.3765 56.3843 80.926
rForeArm  -25.18 0.395344 59.7148
rHand  0.406208 -9.9085 0.150143
lThigh  -3.65651 -7.88694 -4.96477
lShin  -0.88038 1.49765 -4.66288
lFoot  7.33697 -0.117103 -10.7811
rThigh  4.84873 -9.50477 -0.696227
rShin  -21.7983 16.7896 -6.217
rFoot  -2.13686 0.682008 4.09571
131
root  -56.3805 37.2083 26.6364 174.694 1.49002 87.9278
abdomen  0.332777 0.716714 -7.01815
chest  0.356785 -0.0010827 -10.0335
neckDummy  3.03321e-021 0 6.73878e-016
neck  -14.2365 10.588 20.9726
head  -17.7825 -22.2265 -8.06857
figureHair  0 0 -1.04948e-014
lCollar  -3.38943e-016 -6.49156e-016 -7.51406e-014
lShldr  15.5944 -12.5333 -75.2542
lForeArm  32.6208 -4.05806 -7.68443
lHand  0.254698 0.195082 5.2986
rCollar  2.67893e-016 -5.20816e-014 1.63997e-015
rShldr  23.3235 57.7433 80.5341
rForeArm  -23.2954 1.18933 36.2777
rHand  0.444659 -7.59398 -1.2431
lThigh  -4.18946 -8.22762 -4.66639
lShin  -2.73069 1.8611 -5.17564
lFoot  7.47471 -0.178347 -9.85059
rThigh  4.57261 -10.2505 -1.00375
rShin  -21.9575 16.3756 -6.23879
rFoot  -0.944814 0.484104 3.99619
132
root  -56.3206 37.1986 26.905 172.455 1.18432 88.3329
abdomen  0.199814 1.73465 -7.79537
chest  0.062846 -1.00492 -9.7865
neckDummy  3.03321e-021 0 6.73878e-016
neck  -13.1228 11.4932 20.9755
head  -17.4148 -22.4867 -6.90326
figureHair  0 0 -1.04948e-014
lCollar  -3.38943e-016 -6.49156e-016 -7.51406e-014
lShldr  16.9538 -6.32058 -75.6773
lForeArm  36.858 -1.47398 -8.28257
lHand  0.254698 0.195082 5.2986
rCollar  2.67893e-016 -5.20816e-014 1.63997e-015
rShldr  37.1625 57.7331 80.7163
rForeArm  -18.2584 4.06316 10.3981
rHand  0.692614 -11.7432 -1.8278
lThigh  -4.87171 -9.02853 -4.14978
lShin  -4.75981 3.06423 -5.59007
lFoot  6.74841 -0.35173 -8.05244
rThigh  5.07985 -10.8275 -1.62247
rShin  -18.5526 16.1036 -5.4387
rFoot  -0.588784 0.40658 3.7528
133
root  -56.2846 37.1936 27.168 170.066 0.945623 88.8237
abdomen  0.751433 2.29022 -8.3572
chest  0.536302 -1.7576 -9.59879
neckDummy  3.03321e-021 0 6.73878e-016
neck  -12.5593 12.6489 21.3345
head  -17.6927 -22.9384 -5.78898
figureHair  0 0 -1.04948e-014
lCollar  -3.38943e-016 -6.49156e-016 -7.51406e-014
lShldr  18.4982 0.377616 -76.9162
lForeArm  45.7466 -3.98093 -8.13144
lHand  0.254698 0.195082 5.2986
rCollar  2.67893e-016 -5.20816e-014 1.63997e-015
rShldr  69.9404 60.3136 72.7934
rForeArm  -19.1122 5.28921 -4.02542
rHand  0.177071 -25.3773 3.58848
lThigh  -5.35899 -9.73179 -3.73344
lShin  -6.99699 4.00427 -5.90729
lFoot  5.78047 -0.344118 -6.44497
rThigh  6.4997 -11.6224 -2.81023
rShin  -11.8966 16.6134 -4.06651
rFoot  -1.53082 0.534298 3.56938
134
root  -56.2728 37.2011 27.43 167.899 0.67385 89.2962
abdomen  1.687 1.46601 -8.83509
chest  1.60518 -1.25456 -9.74745
neckDummy  3.03321e-021 0 6.73878e-016
neck  -12.6288 13.4416 22.9542
head  -18.3469 -23.0172 -5.38779
figureHair  0 0 -1.04948e-014
lCollar  -3.38943e-016 -6.49156e-016 -7.51406e-014
lShldr  20.9398 5.13658 -77.7209
lForeArm  45.4238 -6.1929 -7.83385
lHand  0.254698 0.195082 5.2986
rCollar  2.67893e-016 -5.20816e-014 1.63997e-015
rShldr  62.6247 64.8037 53.6648
rForeArm  13.4218 0.000166997 -1.33286
rHand  -1.50939 -31.7646 9.65034
lThigh  -5.72075 -10.229 -3.36515
lShin  -9.10593 4.67545 -6.1408
lFoot  4.82783 -0.276814 -4.9106
rThigh  9.38012 -11.9163 -4.66547
rShin  -3.96563 17.2734 -1.96691
rFoot  -2.24868 0.657179 3.68771
135
root  -56.2683 37.2158 27.6585 166.43 0.470401 89.7633
abdomen  2.12178 -0.0209324 -9.075
chest  2.26374 0.136756 -9.77801
neckDummy  3.03321e-021 0 6.73878e-016
neck  -12.5924 13.8721 24.3384
head  -18.664 -23.0861 -5.2927
figureHair  0 0 -1.04948e-014
lCollar  -3.38943e-016 -6.49156e-016 -7.51406e-014
lShldr  21.5844 9.12963 -77.8403
lForeArm  35.4833 -7.87696 -6.76232
lHand  0.254698 0.195082 5.2986
rCollar  2.67893e-016 -5.20816e-014 1.63997e-015
rShldr  38.9864 66.107 27.4886
rForeArm  32.3763 -1.00734 3.68316
rHand  0.436704 -18.4124 1.17819
lThigh  -5.98695 -10.8072 -3.07494
lShin  -10.5707 5.25902 -6.31962
lFoot  3.72351 -0.273539 -3.71669
rThigh  13.7431 -11.2538 -6.91367
rShin  3.76218 17.4029 0.798236
rFoot  -1.94423 0.621167 3.79959
136
root  -56.2791 37.2361 27.8255 165.553 0.515525 90.1439
abdomen  1.91752 -0.639806 -8.83251
chest  2.14177 0.764478 -9.6621
neckDummy  3.03321e-021 0 6.73878e-016
neck  -11.9541 14.2573 21.922
head  -18.6867 -23.3013 -2.33052
figureHair  0 0 -1.04948e-014
lCollar  -3.38943e-016 -6.49156e-016 -7.51406e-014
lShldr  19.9306 12.6946 -78.2437
lForeArm  27.7724 -9.41923 -5.15965
lHand  0.254698 0.195082 5.2986
rCollar  2.67893e-016 -5.20816e-014 1.63997e-015
rShldr  16.1487 62.3937 5.75811
rForeArm  24.7365 0.205817 7.94889
rHand  0.43997 -3.00208 -5.41867
lThigh  -5.91474 -11.1322 -3.14949
lShin  -11.6426 5.3741 -6.40501
lFoot  2.94755 -0.250193 -2.84224
rThigh  18.1855 -10.0591 -8.94642
rShin  10.0451 17.3266 3.30206
rFoot  -1.83596 0.547435 3.22531
137
root  -56.2998 37.2473 27.9065 164.588 0.738825 90.2045
abdomen  1.44972 -0.238651 -8.34481
chest  1.61338 0.482012 -9.73833
neckDummy  3.03321e-021 0 6.73878e-016
neck  -10.985 14.5951 20.6054
head  -18.0895 -23.1969 -1.07083
figureHair  0 0 -1.04948e-014
lCollar  -3.38943e-016 -6.49156e-016 -7.51406e-014
lShldr  18.0775 14.4829 -78.8002
lForeArm  28.0231 -9.52193 -4.71263
lHand  0.254698 0.195082 5.2986
rCollar  2.67893e-016 -5.20816e-014 1.63997e-015
rShldr  -0.0730904 57.1573 -5.61894
rForeArm  12.1479 1.81701 12.1717
rHand  0.248083 -12.529 1.91057
lThigh  -5.63406 -11.0516 -3.44359
lShin  -12.826 5.29423 -6.37154
lFoot  2.66683 -0.251544 -1.98015
rThigh  21.0607 -8.91594 -10.1588
rShin  13.3106 17.3709 4.59102
rFoot  -2.37096 0.503815 2.05743
